<?xml version="1.0" encoding="utf-8"?><svg version="1.1" id="white" xmlns="http://www.w3.org/2000/svg" xmlns:xlink="http://www.w3.org/1999/xlink" x="0px" y="0px" viewBox="0 0 184.6 46.1" style="enable-background:new 0 0 184.6 46.1;" xml:space="preserve"><style type="text/css">.st0{fill:#00B2E3;}.st1{fill:#FFFFFF;}</style><g><path class="st0" d="M35.3,38.4c-2.9,0.9-6,1.4-9.2,1.4s-6.3-0.5-9.2-1.4c-3.4-1.1-5.5-4.5-4.8-8c1.3-6.4,4.6-12,9.3-16.3c2.7-2.5,6.8-2.5,9.5,0c4.6,4.2,7.9,9.9,9.3,16.3C40.8,33.9,38.8,37.4,35.3,38.4 M51.8,35.2L32.4,1.7C31.8,0.6,30.7,0,29.5,0h-6.7c-1.2,0-2.3,0.6-2.9,1.7L0.4,35.2c-0.6,1.1-0.6,2.4,0,3.4l3.4,5.8c0.6,1.1,1.7,1.7,2.9,1.7h38.7c1.2,0,2.3-0.6,2.9-1.7l3.4-5.8C52.4,37.5,52.4,36.2,51.8,35.2"/><path class="st1" d="M150.9,13.4l-11.7,23c-0.2,0.4-0.6,0.6-1,0.6h-3.9c-0.4,0-0.8-0.2-1-0.6l-11.7-23c-0.2-0.4-0.2-0.8,0-1.2l1.2-2.2c0.2-0.4,0.7-0.7,1.2-0.7h1.1c0.3,0,0.6,0.2,0.7,0.4l9.8,19.5c0.2,0.4,0.8,0.4,1,0l9.8-19.5c0.1-0.3,0.4-0.4,0.7-0.4h1.1c0.5,0,0.9,0.3,1.2,0.7l1.3,2.2C151.1,12.5,151.1,13,150.9,13.4"/><path class="st1" d="M93.1,13.4l-11.7,23c-0.2,0.4-0.6,0.6-1,0.6h-3.9c-0.4,0-0.8-0.2-1-0.6l-11.7-23c-0.2-0.4-0.2-0.8,0-1.2l1.3-2.2c0.2-0.4,0.7-0.7,1.2-0.7h1.1c0.3,0,0.6,0.2,0.7,0.4l9.8,19.5c0.2,0.4,0.8,0.4,1,0l9.8-19.5c0.1-0.3,0.4-0.4,0.7-0.4h1.1c0.5,0,0.9,0.3,1.2,0.7l1.3,2.2C93.2,12.5,93.2,13,93.1,13.4"/><path class="st1" d="M109.9,9.6c-0.2-0.2-0.5-0.3-0.8-0.3h-1.8c-0.5,0-0.9,0.3-1.2,0.7l-1.2,2.2c-0.1,0.2-0.2,0.4-0.2,0.6v23.1c0,0.6,0.5,1.1,1.1,1.1h3.2c0.6,0,1.1-0.5,1.1-1.1V10.4C110.1,10.1,110.1,9.8,109.9,9.6"/><path class="st1" d="M164.1,10c0.2-0.4,0.7-0.7,1.2-0.7h16.7c0.5,0,0.9,0.3,1.1,0.7l1.2,2c0.2,0.3,0.3,0.6,0.3,1v0.5c0,0.4-0.3,0.8-0.8,0.8h-15.3c-0.3,0-0.6,0.3-0.6,0.6v5.2c0,0.3,0.2,0.6,0.6,0.6h10.3c0.5,0,0.9,0.4,0.9,0.9v3c0,0.5-0.4,0.9-0.9,0.9h-10.3c-0.3,0-0.6,0.2-0.6,0.6v5.4c0,0.3,0.2,0.6,0.6,0.6h15.3c0.4,0,0.8,0.3,0.8,0.8v0.5c0,0.3-0.1,0.7-0.3,1l-1.2,2c-0.2,0.4-0.7,0.7-1.1,0.7h-16.7c-0.5,0-0.9-0.3-1.2-0.7l-1.2-2c-0.2-0.3-0.3-0.6-0.3-1V13c0-0.3,0.1-0.7,0.3-1L164.1,10z"/></g></svg>